# xmcd
#
# Track frame offsets: 
#        183
#        11783
#        21770
#        28945
#        34933
#        46245
#        60083
#        71645
#        81870
#        89870
#        99158
#        107445
#        119833
#        127808
#        143045
#        150770
#        165120
#        174120
#        182283
#        194220
#        204920
#        217020
#        229158
#        241733
#
# Disc length: 3394 seconds
#
# Revision: 0
# Processed by: cddbd v1.5PL3 Copyright (c) Steve Scherf et al.
# Submitted via: ExactAudioCopy v0.95a5
#
DISCID=320d4018
DTITLE=Jim Reeves - I Love You More
DYEAR=1995
DGENRE=Country
TTITLE0=I Love You More
TTITLE1=Home
TTITLE2=I'm Beginning To Forget You
TTITLE3=Have I Told You Lately That I Love You
TTITLE4=Just Call Me Lonesome
TTITLE5=How's The World Treating You
TTITLE6=If Heartaches Are The Fashion
TTITLE7=Dear Hearts And Gentle People
TTITLE8=Roly Poly
TTITLE9=The Wind-Up Doll
TTITLE10=Sweet Evening Breeze
TTITLE11=Your Old Love Letters
TTITLE12=Till The End Of The World
TTITLE13=Making Believe
TTITLE14=The Oklahoma Hills
TTITLE15=The Highway To Nowhere
TTITLE16=If You Were Mine
TTITLE17=Everywhere You Go
TTITLE18=I've Lived A Lot In My Time
TTITLE19=Where Does A Broken Heart Go
TTITLE20=Shall We Gather At The River (Mother Went A-Walkin)
TTITLE21=The Wilder Your Heart Beats The Sweeter You Love
TTITLE22=Heart Breaking Baby
TTITLE23=I'll Tell The World I Love You
EXTD=
EXTT0=
EXTT1=
EXTT2=
EXTT3=
EXTT4=
EXTT5=
EXTT6=
EXTT7=
EXTT8=
EXTT9=
EXTT10=
EXTT11=
EXTT12=
EXTT13=
EXTT14=
EXTT15=
EXTT16=
EXTT17=
EXTT18=
EXTT19=
EXTT20=
EXTT21=
EXTT22=
EXTT23=
PLAYORDER=
